<?xml version="1.0" standalone="no"?>
<!DOCTYPE svg PUBLIC "-//W3C//DTD SVG 20010904//EN"
 "http://www.w3.org/TR/2001/REC-SVG-20010904/DTD/svg10.dtd">
<svg version="1.0" xmlns="http://www.w3.org/2000/svg"
 width="3406.000000pt" height="1137.000000pt" viewBox="0 0 3406.000000 1137.000000"
 preserveAspectRatio="xMidYMid meet">

<g transform="translate(0.000000,1137.000000) scale(0.100000,-0.100000)"
fill="#000000" stroke="none">
<path d="M5330 11359 c-655 -30 -1300 -178 -1918 -441 l-142 -61 -128 27
c-350 75 -661 165 -874 253 -96 40 -123 47 -183 47 -84 1 -159 -30 -227 -93
-76 -69 -94 -116 -137 -348 -52 -275 -104 -605 -140 -891 l-30 -232 -83 -93
c-614 -681 -1048 -1498 -1267 -2387 -50 -202 -104 -493 -115 -620 -4 -36 7 9
23 100 182 1029 628 1929 1334 2695 82 89 83 85 63 -197 -48 -679 -44 -1143
14 -1623 44 -363 108 -626 225 -925 183 -469 432 -849 789 -1206 392 -392 833
-667 1401 -875 71 -26 131 -52 133 -58 5 -15 -20 -18 -248 -31 -261 -14 -451
-33 -713 -70 -990 -142 -1546 -399 -2004 -924 l-59 -68 -66 128 c-539 1054
-697 2261 -448 3436 136 643 406 1275 776 1816 47 67 82 122 80 122 -9 0 -199
-263 -279 -385 -415 -637 -682 -1373 -771 -2125 -52 -431 -70 -694 -70 -1015
-1 -311 7 -439 40 -693 67 -515 229 -1052 451 -1495 l65 -130 -50 -111 c-93
-208 -156 -441 -182 -671 -21 -188 -10 -246 60 -315 69 -69 155 -86 285 -56
172 40 537 73 660 60 58 -7 63 -9 140 -83 352 -335 663 -567 1067 -794 666
-376 1546 -660 2250 -727 360 -34 614 -43 831 -31 657 38 1238 170 1784 406
l121 52 39 -22 c21 -12 164 -94 318 -182 570 -325 578 -329 696 -299 161 41
267 173 268 331 1 142 -47 531 -94 760 l-24 120 77 69 c42 38 138 130 212 205
786 790 1289 1818 1430 2922 25 196 60 750 59 912 l-2 122 -8 -140 c-57 -1016
-410 -1988 -1016 -2801 -148 -198 -288 -359 -478 -550 -161 -162 -359 -344
-375 -344 -3 0 -32 69 -64 152 -150 396 -362 746 -605 1000 -138 144 -222 211
-486 386 -224 148 -472 326 -875 627 -124 92 -319 231 -435 307 -115 77 -213
147 -217 156 -10 25 -9 207 2 377 29 436 170 1093 311 1447 195 490 467 816
946 1134 620 413 1247 532 1793 342 72 -25 1260 -618 1304 -651 14 -10 0 -32
-95 -147 -151 -184 -456 -592 -624 -835 -76 -110 -183 -265 -238 -345 -330
-476 -519 -671 -775 -799 -247 -124 -746 -211 -1207 -211 -170 0 -217 -10
-288 -58 -90 -62 -143 -187 -117 -274 18 -64 47 -98 104 -124 45 -21 66 -24
173 -24 444 0 998 87 1303 204 361 140 665 379 927 731 41 55 209 300 373 545
163 245 345 512 403 593 157 220 379 499 388 490 4 -4 21 -73 38 -153 88 -428
124 -897 102 -1320 -28 -513 -44 -703 -82 -938 -12 -68 -18 -126 -16 -128 5
-5 76 281 101 406 82 411 111 756 103 1209 -6 380 -39 682 -110 1026 -13 59
-12 60 19 113 76 126 40 270 -82 324 -23 10 -46 23 -51 30 -5 7 -29 72 -52
143 -98 301 -273 693 -433 975 -720 1263 -1883 2191 -3252 2595 -444 130 -877
202 -1356 225 -232 11 -243 11 -490 -1z m544 -369 c317 -20 502 -39 661 -65
776 -131 1458 -400 2100 -828 296 -198 527 -389 806 -667 457 -456 774 -896
1049 -1455 99 -202 197 -431 188 -440 -3 -3 -99 39 -214 94 -873 412 -942 443
-1091 485 -633 182 -1367 15 -2053 -467 -287 -201 -482 -385 -661 -624 -206
-274 -450 -778 -597 -1234 -159 -491 -251 -1069 -234 -1457 l4 -72 56 -39 c98
-65 246 -152 620 -360 628 -349 835 -486 1134 -748 234 -205 365 -379 517
-682 193 -385 324 -850 401 -1426 11 -77 18 -140 17 -142 -3 -3 -491 251 -787
409 -124 67 -309 165 -413 219 -391 206 -623 368 -881 619 -565 549 -884 1251
-1030 2270 -75 518 -86 1161 -31 1710 39 382 83 623 241 1334 233 1047 265
1322 194 1663 -150 719 -771 1253 -1838 1582 -221 68 -220 71 30 139 399 107
773 175 1083 195 150 10 456 5 729 -13z m-3547 -410 c188 -60 446 -122 768
-185 772 -150 1159 -267 1578 -476 371 -184 533 -357 642 -681 85 -255 100
-434 66 -783 -29 -286 -74 -643 -160 -1255 -130 -924 -171 -1372 -171 -1885 0
-958 161 -1762 485 -2424 198 -403 431 -728 760 -1056 272 -273 484 -443 887
-713 120 -80 218 -149 218 -153 0 -9 -163 -67 -315 -112 -299 -90 -632 -157
-957 -194 -224 -25 -849 -25 -1073 0 -850 97 -1606 366 -2290 814 -195 128
-463 328 -453 338 2 2 63 -9 135 -25 191 -42 279 -52 448 -52 567 1 1157 275
1651 767 169 168 202 215 212 301 9 87 -48 176 -133 204 -51 17 -143 8 -193
-18 -24 -12 -95 -70 -160 -128 -331 -300 -676 -492 -1015 -566 -143 -31 -419
-31 -552 1 -138 32 -416 79 -581 96 -292 32 -713 19 -969 -30 -38 -7 -72 -11
-74 -9 -10 9 21 205 48 310 71 269 203 524 386 743 452 543 1310 872 2464 947
91 6 107 9 128 30 23 23 30 67 15 91 -5 7 -46 26 -93 42 -482 163 -954 454
-1297 800 -510 513 -789 1125 -887 1951 -22 183 -31 685 -16 910 38 567 156
1426 301 2190 47 246 48 250 62 250 6 0 66 -18 135 -40z"/>
<path d="M19205 8904 c-302 -15 -648 -35 -687 -40 l-48 -6 0 -2074 0 -2074
370 0 370 0 0 1865 0 1865 23 5 c119 27 476 33 610 10 305 -53 483 -229 541
-534 21 -112 21 -366 0 -490 -32 -189 -97 -326 -203 -431 -140 -138 -327 -208
-605 -226 l-106 -7 0 -27 c0 -48 48 -127 98 -160 208 -137 672 -124 977 28
304 151 507 427 587 795 19 87 22 133 22 312 0 179 -3 225 -22 313 -49 226
-126 378 -256 507 -185 184 -428 291 -801 351 -76 13 -184 17 -450 19 -192 1
-381 1 -420 -1z"/>
<path d="M13850 6800 l0 -2090 295 0 295 0 0 1748 c0 994 4 1741 9 1732 5 -8
230 -780 500 -1715 271 -935 497 -1715 502 -1732 l11 -33 243 0 244 0 25 83
c14 45 239 820 501 1722 261 902 479 1649 484 1660 6 12 10 -649 10 -1722 l1
-1743 370 0 370 0 0 2090 0 2090 -532 -2 -533 -3 -416 -1498 c-229 -823 -418
-1499 -421 -1502 -2 -3 -188 651 -413 1453 -224 801 -414 1478 -422 1505 l-14
47 -554 0 -555 0 0 -2090z"/>
<path d="M22367 8045 c-456 -74 -761 -325 -953 -781 -121 -289 -168 -561 -168
-969 1 -442 60 -752 199 -1040 186 -383 450 -584 870 -661 155 -29 491 -26
643 4 407 82 657 275 843 652 154 311 231 746 215 1210 -12 369 -74 654 -195
903 -182 374 -451 586 -851 669 -128 26 -474 34 -603 13z m363 -365 c36 -6 97
-26 136 -45 197 -96 301 -325 371 -815 15 -102 18 -194 18 -505 0 -399 -9
-524 -56 -757 -48 -241 -99 -365 -189 -462 -101 -107 -209 -149 -386 -149
-224 1 -376 90 -464 275 -72 149 -126 419 -151 748 -13 175 -7 703 11 840 65
523 227 807 494 865 76 17 132 18 216 5z"/>
<path d="M30040 8050 c-319 -44 -576 -169 -765 -372 -226 -242 -371 -577 -436
-1008 -31 -199 -33 -619 -6 -815 59 -416 209 -750 432 -964 165 -158 334 -242
589 -293 164 -33 448 -33 595 0 385 86 658 296 737 567 22 74 24 213 5 279
-14 48 -93 146 -118 146 -5 0 -15 -12 -22 -27 -29 -64 -125 -197 -184 -256
-172 -172 -367 -251 -622 -251 -203 0 -326 44 -437 156 -102 103 -191 323
-232 573 -15 92 -36 292 -36 341 0 20 4 20 303 20 318 -1 407 6 623 49 220 44
438 135 562 235 117 94 212 247 252 404 42 167 42 417 0 580 -79 311 -328 533
-689 618 -98 22 -436 34 -551 18z m296 -371 c82 -31 156 -104 204 -203 56
-114 71 -181 77 -337 9 -225 -35 -366 -152 -485 -147 -149 -413 -217 -775
-197 l-145 8 3 115 c6 288 82 650 174 835 103 205 268 303 486 289 41 -3 98
-14 128 -25z"/>
<path d="M33201 8050 c-293 -61 -507 -242 -627 -529 l-32 -74 -6 49 c-3 27
-11 153 -17 279 -6 127 -13 231 -14 233 -2 2 -126 -13 -277 -32 -150 -20 -279
-36 -285 -36 -10 0 -13 -330 -13 -1615 l0 -1615 345 0 345 0 0 898 c0 1067 9
1252 75 1577 40 196 113 317 224 369 37 17 64 21 141 21 83 -1 101 -4 147 -28
101 -52 143 -148 143 -325 0 -63 -8 -143 -18 -196 l-19 -88 31 -19 c54 -34
108 -44 226 -44 240 1 383 90 451 280 30 85 38 289 15 400 -47 231 -203 403
-431 475 -56 18 -99 23 -215 26 -80 2 -165 -1 -189 -6z"/>
<path d="M24230 7935 c0 -2 180 -729 401 -1615 l401 -1610 428 0 428 0 15 68
c9 37 115 540 237 1117 121 578 224 1059 229 1069 5 12 39 -127 100 -405 52
-233 164 -743 250 -1134 l156 -710 430 -2 430 -3 436 1613 436 1612 -325 3
c-179 1 -327 0 -330 -3 -3 -3 -133 -627 -289 -1388 -156 -760 -286 -1389 -289
-1397 -4 -8 -8 -10 -10 -5 -4 10 -574 2784 -574 2791 0 2 -154 4 -343 4 l-343
0 -279 -1357 c-330 -1610 -296 -1446 -302 -1439 -3 3 -135 632 -292 1398
l-286 1393 -357 3 c-197 1 -358 0 -358 -3z"/>
<path d="M72 6420 c0 -19 2 -27 5 -17 2 9 2 25 0 35 -3 9 -5 1 -5 -18z"/>
<path d="M62 6330 c0 -19 2 -27 5 -17 2 9 2 25 0 35 -3 9 -5 1 -5 -18z"/>
<path d="M52 6220 c0 -14 2 -19 5 -12 2 6 2 18 0 25 -3 6 -5 1 -5 -13z"/>
<path d="M10921 4284 c0 -11 3 -14 6 -6 3 7 2 16 -1 19 -3 4 -6 -2 -5 -13z"/>
</g>
</svg>
