<?xml version="1.0" encoding="utf-8"?>
<!-- Generator: Adobe Illustrator 26.3.1, SVG Export Plug-In . SVG Version: 6.00 Build 0)  -->
<svg version="1.1" xmlns="http://www.w3.org/2000/svg" xmlns:xlink="http://www.w3.org/1999/xlink" x="0px" y="0px"
	 viewBox="0 0 1920 500" style="enable-background:new 0 0 1920 500;" xml:space="preserve">
<style type="text/css">
	.st0{fill:#AA206B;}
	.st1{fill:#EFEFEF;}
	.st2{fill:#FFFFFF;}
	.st3{fill:#CECECE;}
	.st4{opacity:0.4;}
	.st5{fill:#5F5F5F;}
	.st6{fill:#B5B5B5;}
	.st7{fill:#00B5B5;stroke:#FFFFFF;stroke-width:2.5;}
	.st8{fill:#F1F3FB;}
	.st9{fill:#8CA5FE;}
	.st10{fill:#DEA028;}
	.st11{fill:#8DC63F;}
	.st12{fill:#FF8080;}
	.st13{fill:#EA5046;}
	.st14{fill:#FFEFBE;}
	.st15{opacity:0.4;fill:none;stroke:#F5C151;stroke-width:3;stroke-miterlimit:10;enable-background:new    ;}
	.st16{fill:#041724;}
	.st17{fill:#E97EA8;stroke:#FFFFFF;stroke-width:2.5;}
</style>
<g id="Layer_1">
	<path class="st0" d="M-87,74.4H965c45.9,0,83,37.2,83,83v3.2c0,45.9-37.2,83-83,83H-87c-45.9,0-83-37.2-83-83v-3.2
		C-170,111.5-132.8,74.4-87,74.4z"/>
	<path class="st0" d="M955.5,256.1h1052c45.9,0,83,37.2,83,83v3.2c0,45.9-37.2,83-83,83h-1052c-45.9,0-83-37.2-83-83v-3.2
		C872.4,293.2,909.6,256.1,955.5,256.1z"/>
</g>
<g id="Layer_2">
	<g id="Layer_1_00000070117871550187976930000013274472924001230469_">
		<path class="st1" d="M960,426.6c97.3,0,176.1-78.8,176.1-176.1S1057.3,74.4,960,74.4s-176.1,78.8-176.1,176.1
			S862.8,426.6,960,426.6z"/>
		<path class="st2" d="M863.4,340.8c5,0,9-4,9-9s-4-9-9-9s-9,4-9,9S858.4,340.8,863.4,340.8z"/>
		<path class="st3" d="M830.5,218.3c5,0,9-4,9-9s-4-9-9-9s-9,4-9,9C821.5,214.3,825.5,218.3,830.5,218.3z"/>
		<path class="st2" d="M1057.5,219.8c5,0,9-4,9-9s-4-9-9-9c-5,0-9,4-9,9S1052.5,219.8,1057.5,219.8z"/>
		<g class="st4">
			<path class="st5" d="M1007.1,154.6H907c-8.5,0-15.5,7-15.5,15.7v193.6c0,8.7,6.9,15.7,15.5,15.7h100.1c8.5,0,15.5-7,15.5-15.7
				V170.4C1022.6,161.7,1015.7,154.6,1007.1,154.6z"/>
		</g>
		<path class="st2" d="M1010.1,125.3H904c-9,0-16.4,7.3-16.4,16.4v202c0,9,7.3,16.4,16.4,16.4h106.1c9,0,16.4-7.3,16.4-16.4v-202
			C1026.6,132.6,1019.2,125.3,1010.1,125.3z"/>
		<path class="st6" d="M1007.2,131.2H907c-6.4,0-11.5,5.4-11.5,12v199c0,6.6,5.1,12,11.5,12h100.2c6.4,0,11.5-5.4,11.5-12v-199
			C1018.7,136.6,1013.6,131.2,1007.2,131.2z"/>
		<path class="st2" d="M932.6,127v7.2c0,0.9,0.1,1.7,0.4,2.5c0.3,0.8,0.7,1.5,1.3,2.1c0.5,0.6,1.2,1.1,2,1.4
			c0.7,0.3,1.5,0.5,2.3,0.5h38.6c0.8,0,1.6-0.1,2.3-0.5c0.7-0.3,1.4-0.8,2-1.4c0.5-0.6,1-1.3,1.3-2.1c0.3-0.8,0.4-1.6,0.4-2.5V127
			c0-0.4-0.1-0.9-0.5-1.2c-0.3-0.3-0.7-0.5-1.1-0.5h-47.6c-0.4,0-0.8,0.2-1.1,0.5C932.8,126.1,932.6,126.6,932.6,127L932.6,127z"/>
		<path class="st3" d="M1070.6,338.6c7.5,0,13.5-6,13.5-13.5s-6-13.5-13.5-13.5c-7.5,0-13.5,6-13.5,13.5
			C1057.1,332.5,1063.2,338.6,1070.6,338.6z"/>
		<path class="st2" d="M911.5,114c3.1,0,5.6-2.5,5.6-5.6c0-3.1-2.5-5.6-5.6-5.6c-3.1,0-5.6,2.5-5.6,5.6
			C905.8,111.5,908.4,114,911.5,114z"/>
		<path class="st7" d="M1056.4,344.4c0,20.8-16.9,37.7-37.7,37.7c-20.8,0-37.7-16.9-37.7-37.7c0-20.8,16.9-37.7,37.7-37.7
			C1039.5,306.7,1056.4,323.6,1056.4,344.4z"/>
		<path class="st2" d="M1017.7,341.6c5.1,0,9.2-4.2,9.2-9.3s-4.1-9.3-9.2-9.3c-5.1,0-9.2,4.2-9.2,9.3
			C1008.5,337.4,1012.6,341.6,1017.7,341.6z"/>
		<path class="st2" d="M1025.1,345.7c-0.4-0.2-0.9-0.4-1.4-0.3c-0.5,0-1,0.1-1.4,0.4c-1.4,0.8-2.9,1.3-4.5,1.3s-3.1-0.4-4.5-1.3
			c-0.4-0.3-0.9-0.4-1.4-0.4s-1,0.1-1.4,0.3c-2.2,1.3-4.2,3.2-5.8,5.6c-1.5,2.3-2.7,5-3.2,8c-0.1,0.5-0.1,1.1,0,1.7
			c0.1,0.5,0.3,1.1,0.6,1.5c0.3,0.4,0.7,0.8,1.1,1.1c0.4,0.2,0.9,0.4,1.4,0.4h26.9c0.5,0,0.9-0.1,1.4-0.4s0.8-0.6,1.1-1.1
			c0.3-0.4,0.5-1,0.6-1.5c0.1-0.5,0.1-1.1,0-1.7c-0.6-2.9-1.7-5.6-3.3-8C1029.4,348.9,1027.4,347,1025.1,345.7z"/>
	</g>
</g>
<g id="Layer_3">
	<g id="Layer_2_00000157988528190194307900000006769978456846956177_">
		<path class="st8" d="M960,426.5c97.2,0,176-78.8,176-176s-78.8-176-176-176s-176,78.8-176,176S862.8,426.5,960,426.5z"/>
		<path class="st2" d="M863.5,340.8c5,0,9-4,9-9c0-5-4-9-9-9c-5,0-9,4-9,9C854.4,336.7,858.5,340.8,863.5,340.8z"/>
		<path class="st9" d="M830.6,218.3c5,0,9-4,9-9s-4-9-9-9c-5,0-9,4-9,9S825.6,218.3,830.6,218.3z"/>
		<path class="st2" d="M1057.4,219.9c5,0,9-4,9-9s-4-9-9-9c-5,0-9,4-9,9S1052.4,219.9,1057.4,219.9z"/>
		<g class="st4">
			<path class="st10" d="M1007.1,154.7H907.1c-8.5,0-15.5,7-15.5,15.7v193.4c0,8.7,6.9,15.7,15.5,15.7h100.1c8.5,0,15.5-7,15.5-15.7
				V170.4C1022.6,161.7,1015.7,154.7,1007.1,154.7z"/>
		</g>
		<path class="st2" d="M1010.1,125.4h-106c-9,0-16.4,7.3-16.4,16.4v201.9c0,9,7.3,16.4,16.4,16.4h106c9,0,16.4-7.3,16.4-16.4V141.8
			C1026.5,132.7,1019.2,125.4,1010.1,125.4z"/>
		<path class="st11" d="M1007.2,131.2H907c-6.4,0-11.5,5.4-11.5,12v198.8c0,6.6,5.1,12,11.5,12h100.1c6.4,0,11.5-5.4,11.5-12V143.3
			C1018.7,136.6,1013.5,131.2,1007.2,131.2z"/>
		<path class="st2" d="M932.6,127.1v7.2c0,0.8,0.1,1.7,0.4,2.5c0.3,0.8,0.7,1.5,1.3,2.1c0.5,0.6,1.2,1.1,2,1.4
			c0.7,0.3,1.5,0.5,2.3,0.5h38.5c0.8,0,1.6-0.1,2.3-0.5c0.7-0.3,1.4-0.8,2-1.4c0.5-0.6,1-1.3,1.3-2.1c0.3-0.8,0.4-1.6,0.4-2.5v-7.2
			c0-0.4-0.1-0.9-0.5-1.2c-0.3-0.3-0.7-0.5-1.1-0.5h-47.5c-0.4,0-0.8,0.2-1.1,0.5C932.8,126.2,932.6,126.7,932.6,127.1z"/>
		<path class="st9" d="M1070.6,338.5c7.5,0,13.5-6,13.5-13.5s-6-13.5-13.5-13.5s-13.5,6-13.5,13.5S1063.1,338.5,1070.6,338.5z"/>
		<path class="st12" d="M958.1,269.8l21.7,39.4l4.7-16.1l18.6,6.5l-21.7-39.4L958.1,269.8z"/>
		<path class="st13" d="M980.5,258.3l-12.7,5.2l15.9,29l19.3,6.8L980.5,258.3z"/>
		<path class="st12" d="M958.1,269.8l-22.6,39.4l-4.9-16.1l-19.4,6.5l22.6-39.4L958.1,269.8z"/>
		<path class="st13" d="M933.6,260.3l12.7,4.9l-15.9,27.6l-19.3,6.5L933.6,260.3z"/>
		<path class="st14" d="M957.1,277.9c25.4,0,46-20.6,46-46s-20.6-46-46-46s-46,20.6-46,46S931.7,277.9,957.1,277.9z"/>
		<path class="st15" d="M957.1,270c20,0,36.2-17.1,36.2-38.1c0-21.1-16.2-38.1-36.2-38.1c-20,0-36.2,17.1-36.2,38.1
			C920.9,253,937.1,270,957.1,270z"/>
		<path class="st16" d="M948.4,250.5c-0.4,0-0.8-0.1-1.2-0.3c-0.4-0.2-0.7-0.4-1-0.7l-12.7-14.2c-0.5-0.6-0.8-1.3-0.7-2.1
			c0-0.8,0.4-1.5,1-2c0.6-0.5,1.4-0.8,2.2-0.7c0.8,0,1.5,0.4,2.1,1l10.5,11.7l26-27c0.5-0.5,1.3-0.8,2.1-0.8c0.7,0,1.5,0.3,2.1,0.8
			c0.5,0.5,0.9,1.2,0.9,1.9c0,0.7-0.2,1.5-0.6,2l-28.3,29.4c-0.3,0.3-0.6,0.5-1,0.7C949.2,250.4,948.8,250.5,948.4,250.5z"/>
		<path class="st2" d="M911.5,114.1c3.1,0,5.6-2.5,5.6-5.6c0-3.1-2.5-5.6-5.6-5.6s-5.6,2.5-5.6,5.6
			C905.9,111.5,908.4,114.1,911.5,114.1z"/>
		<path class="st17" d="M1056.3,344.4c0,20.8-16.8,37.6-37.6,37.6c-20.8,0-37.7-16.8-37.7-37.6s16.8-37.6,37.7-37.6
			C1039.5,306.7,1056.3,323.6,1056.3,344.4z"/>
		<path class="st2" d="M1017.7,341.5c5.1,0,9.2-4.2,9.2-9.3c0-5.1-4.1-9.3-9.2-9.3c-5.1,0-9.2,4.2-9.2,9.3
			C1008.5,337.3,1012.6,341.5,1017.7,341.5z"/>
		<path class="st2" d="M1025.1,345.6c-0.4-0.2-0.9-0.4-1.4-0.3c-0.5,0-1,0.1-1.4,0.4c-1.4,0.8-2.9,1.3-4.5,1.3s-3.1-0.4-4.5-1.3
			c-0.4-0.3-0.9-0.4-1.4-0.4s-1,0.1-1.4,0.3c-2.2,1.3-4.2,3.2-5.8,5.6c-1.5,2.3-2.7,5-3.2,8c-0.1,0.5-0.1,1.1,0,1.7
			c0.1,0.5,0.3,1.1,0.6,1.5c0.3,0.4,0.7,0.8,1.1,1.1c0.4,0.2,0.9,0.4,1.4,0.4h26.9c0.5,0,0.9-0.1,1.4-0.4s0.8-0.6,1.1-1.1
			c0.3-0.4,0.5-1,0.6-1.5c0.1-0.5,0.1-1.1,0-1.7c-0.6-2.9-1.7-5.6-3.3-8C1029.3,348.8,1027.4,346.9,1025.1,345.6z"/>
	</g>
</g>
</svg>
