<?xml version="1.0" encoding="utf-8"?>
<!-- Generator: Adobe Illustrator 26.3.1, SVG Export Plug-In . SVG Version: 6.00 Build 0)  -->
<svg version="1.1" xmlns="http://www.w3.org/2000/svg" xmlns:xlink="http://www.w3.org/1999/xlink" x="0px" y="0px"
	 viewBox="0 0 800 800" style="enable-background:new 0 0 800 800;" xml:space="preserve">
<style type="text/css">
	.st0{display:none;}
	.st1{display:inline;fill:#EFEFEF;}
	.st2{display:inline;fill:#FFFFFF;}
	.st3{display:inline;fill:#CECECE;}
	.st4{display:inline;opacity:0.4;}
	.st5{fill:#5F5F5F;}
	.st6{display:inline;fill:#B5B5B5;}
	.st7{display:inline;fill:#00B5B5;stroke:#FFFFFF;stroke-width:2.5;}
	.st8{fill:#F1F3FB;}
	.st9{fill:#FFFFFF;}
	.st10{fill:#8CA5FE;}
	.st11{opacity:0.4;}
	.st12{fill:#DEA028;}
	.st13{fill:#8DC63F;}
	.st14{fill:#FF8080;}
	.st15{fill:#EA5046;}
	.st16{fill:#FFEFBE;}
	.st17{opacity:0.4;fill:none;stroke:#F5C151;stroke-width:3;stroke-miterlimit:10;enable-background:new    ;}
	.st18{fill:#041724;}
	.st19{fill:#E97EA8;stroke:#FFFFFF;stroke-width:2.5;}
</style>
<g id="Layer_1" class="st0">
	<path class="st1" d="M400.5,753C595.2,753,753,595.2,753,400.5C753,205.8,595.2,48,400.5,48C205.8,48,48,205.8,48,400.5
		C48,595.2,205.8,753,400.5,753z"/>
	<path class="st2" d="M207.1,581.3c10,0,18.1-8.1,18.1-18.1s-8.1-18.1-18.1-18.1c-10,0-18.1,8.1-18.1,18.1S197.1,581.3,207.1,581.3z
		"/>
	<path class="st3" d="M141.3,336c10,0,18.1-8.1,18.1-18.1c0-10-8.1-18.1-18.1-18.1c-10,0-18.1,8.1-18.1,18.1
		C123.3,328,131.3,336,141.3,336z"/>
	<path class="st2" d="M595.6,339.1c10,0,18.1-8.1,18.1-18.1s-8.1-18.1-18.1-18.1c-10,0-18.1,8.1-18.1,18.1S585.6,339.1,595.6,339.1z
		"/>
	<g class="st4">
		<path class="st5" d="M494.8,208.6H294.4c-17.1,0-31,14.1-31,31.5v387.5c0,17.4,13.9,31.5,31,31.5h200.4c17.1,0,31-14.1,31-31.5
			V240.1C525.8,222.7,512,208.6,494.8,208.6z"/>
	</g>
	<path class="st2" d="M500.8,149.8H288.4c-18.1,0-32.8,14.7-32.8,32.8V587c0,18.1,14.7,32.8,32.8,32.8h212.4
		c18.1,0,32.8-14.7,32.8-32.8V182.7C533.7,164.5,519,149.8,500.8,149.8z"/>
	<path class="st6" d="M494.9,161.6H294.4c-12.8,0-23.1,10.8-23.1,24.1V584c0,13.3,10.3,24.1,23.1,24.1h200.5
		c12.8,0,23.1-10.8,23.1-24.1V185.7C518,172.4,507.7,161.6,494.9,161.6z"/>
	<path class="st2" d="M345.7,153.3v14.5c0,1.8,0.3,3.5,0.9,5.1c0.6,1.6,1.5,3.1,2.7,4.3c1.1,1.2,2.5,2.2,4,2.9c1.5,0.7,3.1,1,4.7,1
		h77.2c1.6,0,3.2-0.3,4.7-1c1.5-0.7,2.9-1.6,4-2.9c1.1-1.2,2.1-2.7,2.7-4.3c0.6-1.6,0.9-3.3,0.9-5.1v-14.5c0-0.9-0.3-1.8-1-2.5
		c-0.6-0.7-1.4-1-2.3-1h-95.3c-0.9,0-1.7,0.4-2.3,1C346,151.5,345.7,152.4,345.7,153.3L345.7,153.3z"/>
	<path class="st3" d="M621.9,576.8c15,0,27.1-12.1,27.1-27.1c0-15-12.1-27.1-27.1-27.1c-15,0-27.1,12.1-27.1,27.1
		C594.8,564.6,607,576.8,621.9,576.8z"/>
	<path class="st2" d="M303.3,127.2c6.2,0,11.3-5.1,11.3-11.3c0-6.2-5.1-11.3-11.3-11.3c-6.2,0-11.3,5.1-11.3,11.3
		C292,122.2,297.1,127.2,303.3,127.2z"/>
	<path class="st7" d="M593.4,588.5c0,41.6-33.8,75.4-75.4,75.4c-41.6,0-75.4-33.8-75.4-75.4c0-41.6,33.8-75.4,75.4-75.4
		C559.6,513.1,593.4,546.9,593.4,588.5z"/>
	<path class="st2" d="M516,582.8c10.2,0,18.5-8.4,18.5-18.7c0-10.3-8.3-18.7-18.5-18.7c-10.2,0-18.5,8.4-18.5,18.7
		C497.5,574.4,505.8,582.8,516,582.8z"/>
	<path class="st2" d="M530.8,591c-0.9-0.5-1.9-0.8-2.9-0.7c-1,0-2,0.3-2.9,0.9c-2.8,1.7-5.9,2.6-9.1,2.6s-6.3-0.9-9.1-2.6
		c-0.9-0.6-1.9-0.9-2.9-0.9c-1,0-2,0.2-2.9,0.7c-4.5,2.7-8.5,6.5-11.6,11.2c-3.1,4.7-5.4,10.1-6.5,16c-0.2,1.1-0.2,2.3,0,3.4
		c0.2,1.1,0.6,2.2,1.2,3.1c0.6,0.9,1.4,1.7,2.2,2.2c0.9,0.5,1.8,0.8,2.8,0.8H543c1,0,1.9-0.3,2.8-0.8c0.9-0.5,1.6-1.3,2.2-2.2
		c0.6-0.9,1-2,1.2-3.1c0.2-1.1,0.2-2.3-0.1-3.4c-1.2-5.8-3.4-11.3-6.6-16C539.4,597.5,535.4,593.7,530.8,591z"/>
</g>
<g id="Layer_2">
	<path class="st8" d="M400.5,752.8c194.6,0,352.3-157.7,352.3-352.3c0-194.6-157.7-352.3-352.3-352.3
		c-194.6,0-352.3,157.7-352.3,352.3C48.2,595.1,205.9,752.8,400.5,752.8z"/>
	<path class="st9" d="M207.2,581.2c10,0,18.1-8.1,18.1-18.1c0-10-8.1-18.1-18.1-18.1c-10,0-18.1,8.1-18.1,18.1
		C189.1,573.1,197.2,581.2,207.2,581.2z"/>
	<path class="st10" d="M141.5,336.1c10,0,18.1-8.1,18.1-18.1c0-10-8.1-18.1-18.1-18.1c-10,0-18.1,8.1-18.1,18.1
		C123.4,328,131.5,336.1,141.5,336.1z"/>
	<path class="st9" d="M595.5,339.2c10,0,18.1-8.1,18.1-18.1c0-10-8.1-18.1-18.1-18.1c-10,0-18.1,8.1-18.1,18.1
		C577.4,331.1,585.5,339.2,595.5,339.2z"/>
	<g class="st11">
		<path class="st12" d="M494.8,208.7H294.5c-17.1,0-31,14.1-31,31.5v387.2c0,17.4,13.9,31.5,31,31.5h200.3c17.1,0,31-14.1,31-31.5
			V240.2C525.8,222.8,511.9,208.7,494.8,208.7z"/>
	</g>
	<path class="st9" d="M500.8,150H288.5c-18.1,0-32.8,14.7-32.8,32.8v404.1c0,18.1,14.7,32.8,32.8,32.8h212.3
		c18.1,0,32.8-14.7,32.8-32.8V182.8C533.6,164.7,518.9,150,500.8,150z"/>
	<path class="st13" d="M494.9,161.7H294.4c-12.8,0-23.1,10.8-23.1,24.1v398c0,13.3,10.3,24.1,23.1,24.1h200.4
		c12.8,0,23.1-10.8,23.1-24.1v-398C517.9,172.5,507.6,161.7,494.9,161.7z"/>
	<path class="st9" d="M345.7,153.5V168c0,1.7,0.3,3.5,0.9,5.1c0.6,1.6,1.5,3.1,2.7,4.3c1.1,1.2,2.5,2.2,4,2.9c1.5,0.7,3.1,1,4.7,1
		h77.1c1.6,0,3.2-0.3,4.7-1c1.5-0.7,2.9-1.6,4-2.9c1.1-1.2,2.1-2.7,2.7-4.3s0.9-3.3,0.9-5.1v-14.5c0-0.9-0.3-1.8-1-2.5
		c-0.6-0.7-1.4-1-2.3-1H349c-0.9,0-1.7,0.4-2.3,1C346,151.7,345.7,152.6,345.7,153.5z"/>
	<path class="st10" d="M621.8,576.6c15,0,27.1-12.1,27.1-27.1c0-15-12.1-27.1-27.1-27.1c-15,0-27.1,12.1-27.1,27.1
		C594.7,564.5,606.9,576.6,621.8,576.6z"/>
	<path class="st14" d="M396.6,439.2l43.5,78.8l9.4-32.2l37.2,13.1l-43.4-78.8L396.6,439.2z"/>
	<path class="st15" d="M441.5,416.2l-25.4,10.4l31.9,58.1l38.6,13.7L441.5,416.2z"/>
	<path class="st14" d="M396.6,439.2l-45.3,78.8l-9.9-32.2l-38.8,13.1l45.3-78.8L396.6,439.2z"/>
	<path class="st15" d="M347.7,420.1l25.4,9.9l-31.9,55.3l-38.6,13L347.7,420.1z"/>
	<path class="st16" d="M394.6,455.3c50.8,0,92-41.2,92-92c0-50.8-41.2-92-92-92c-50.8,0-92,41.2-92,92
		C302.6,414.1,343.8,455.3,394.6,455.3z"/>
	<path class="st17" d="M394.6,439.6c40,0,72.4-34.2,72.4-76.3c0-42.2-32.4-76.3-72.4-76.3s-72.4,34.2-72.4,76.3
		C322.2,405.5,354.6,439.6,394.6,439.6z"/>
	<path class="st18" d="M377.2,400.5c-0.8,0-1.7-0.2-2.5-0.6c-0.8-0.4-1.5-0.9-2-1.5L347.2,370c-1.1-1.2-1.6-2.7-1.5-4.3
		c0.1-1.6,0.9-3,2.1-4.1c1.2-1,2.8-1.6,4.4-1.5c1.6,0.1,3.1,0.8,4.2,2l21.1,23.5l52-54.1c1.1-1,2.6-1.6,4.2-1.6c1.5,0,3,0.6,4.2,1.6
		c1.1,1,1.8,2.4,1.9,3.9c0.1,1.5-0.4,3-1.3,4.1l-56.6,58.9c-0.6,0.6-1.3,1.1-2.1,1.4C378.9,400.4,378,400.5,377.2,400.5z"/>
	<path class="st9" d="M303.4,127.4c6.2,0,11.3-5.1,11.3-11.3c0-6.2-5.1-11.3-11.3-11.3c-6.2,0-11.3,5.1-11.3,11.3
		C292.1,122.3,297.1,127.4,303.4,127.4z"/>
	<path class="st19" d="M593.3,588.4c0,41.6-33.7,75.3-75.3,75.3c-41.6,0-75.4-33.7-75.4-75.3c0-41.6,33.7-75.3,75.4-75.3
		C559.6,513,593.3,546.8,593.3,588.4z"/>
	<path class="st9" d="M516,582.7c10.2,0,18.5-8.4,18.5-18.7c0-10.3-8.3-18.7-18.5-18.7c-10.2,0-18.5,8.4-18.5,18.7
		C497.5,574.3,505.8,582.7,516,582.7z"/>
	<path class="st9" d="M530.8,590.9c-0.9-0.5-1.9-0.8-2.9-0.7c-1,0-2,0.3-2.9,0.9c-2.8,1.7-5.9,2.6-9.1,2.6c-3.2,0-6.3-0.9-9.1-2.6
		c-0.9-0.6-1.9-0.9-2.9-0.9c-1,0-2,0.2-2.9,0.7c-4.5,2.7-8.5,6.5-11.6,11.2c-3.1,4.7-5.4,10.1-6.5,16c-0.2,1.1-0.2,2.3,0,3.4
		c0.2,1.1,0.6,2.2,1.2,3.1c0.6,0.9,1.4,1.7,2.2,2.2c0.9,0.5,1.8,0.8,2.8,0.8h53.8c1,0,1.9-0.3,2.8-0.8c0.9-0.5,1.6-1.3,2.2-2.2
		c0.6-0.9,1-2,1.2-3.1c0.2-1.1,0.2-2.3-0.1-3.4c-1.2-5.8-3.4-11.3-6.6-16C539.3,597.3,535.3,593.5,530.8,590.9z"/>
</g>
</svg>
